<?xml version="1.0" standalone="no"?>
<!DOCTYPE svg PUBLIC "-//W3C//DTD SVG 20010904//EN"
 "http://www.w3.org/TR/2001/REC-SVG-20010904/DTD/svg10.dtd">
<svg version="1.0" xmlns="http://www.w3.org/2000/svg"
 width="234.000000pt" height="60.000000pt" viewBox="0 0 234.000000 60.000000"
 preserveAspectRatio="xMidYMid meet">

<g transform="translate(0.000000,60.000000) scale(0.100000,-0.100000)"
fill="#000000" stroke="none">
<path d="M0 300 l0 -300 1170 0 1170 0 0 300 0 300 -1170 0 -1170 0 0 -300z
m197 54 c16 -16 -16 -108 -40 -112 -15 -3 -16 0 -6 21 9 20 8 32 -5 58 -25 50
10 74 51 33z m83 -14 c0 -15 7 -20 25 -20 18 0 25 5 25 20 0 11 7 20 15 20 11
0 15 -11 16 -37 0 -33 1 -35 9 -15 13 30 65 34 86 6 10 -13 12 -12 18 1 4 11
17 16 38 15 51 -3 58 -1 58 15 0 21 16 19 40 -5 l20 -20 20 20 c22 22 79 27
98 8 21 -21 13 -28 -30 -26 -40 3 -43 1 -43 -22 0 -20 5 -25 25 -27 14 -1 18
0 8 3 -33 10 -20 34 17 34 25 0 35 -4 35 -16 0 -8 4 -13 10 -9 5 3 7 12 4 20
-7 17 29 37 53 28 25 -9 33 -23 33 -60 0 -32 -1 -33 -44 -33 -32 0 -46 5 -50
17 -5 11 -10 13 -14 7 -28 -44 -96 -34 -115 16 -12 32 -21 37 -33 18 -4 -6 0
-16 9 -23 24 -18 21 -35 -7 -35 -24 0 -36 16 -36 51 0 21 -8 23 -30 9 -11 -7
-12 -10 -2 -10 8 0 12 -9 10 -22 -2 -19 -9 -23 -37 -23 -20 0 -36 6 -39 14 -4
11 2 12 23 7 15 -4 24 -3 21 2 -13 22 -44 19 -55 -4 -14 -32 -64 -33 -85 -2
l-16 22 0 -22 c0 -13 -6 -22 -15 -22 -9 0 -15 9 -15 25 0 20 -5 25 -25 25 -20
0 -25 -5 -25 -25 0 -18 -5 -25 -20 -25 -18 0 -20 7 -20 60 0 53 2 60 20 60 13
0 20 -7 20 -20z m630 6 c0 -8 6 -17 13 -20 10 -5 10 -7 0 -12 -15 -6 -18 -44
-4 -44 5 0 12 11 15 25 12 46 79 53 96 11 l9 -21 0 22 c1 17 7 21 36 21 23 0
35 -5 35 -14 0 -8 -7 -14 -15 -14 -9 0 -18 -12 -21 -30 -7 -35 -34 -41 -34 -8
l0 22 -15 -21 c-13 -19 -24 -22 -78 -20 l-62 2 -12 38 c-9 27 -10 44 -3 58 12
22 40 26 40 5z m620 -7 c0 -11 4 -17 10 -14 20 12 51 -15 48 -43 -3 -23 -8
-27 -40 -30 l-38 -3 0 55 c0 31 5 56 10 56 6 0 10 -9 10 -21z m-224 -14 c3
-14 10 -25 14 -25 4 0 11 11 14 25 4 14 11 25 16 25 5 0 12 -11 16 -25 3 -14
10 -25 14 -25 4 0 11 11 14 25 4 14 11 25 16 25 12 0 12 4 -4 -49 -15 -52 -33
-63 -42 -27 -8 32 -22 34 -26 4 -5 -38 -30 -26 -44 22 -16 54 -16 50 -4 50 5
0 12 -11 16 -25z m354 5 c0 -15 7 -20 25 -20 18 0 25 5 25 20 0 11 5 20 10 20
6 0 10 -22 10 -50 0 -27 -4 -50 -10 -50 -5 0 -10 9 -10 20 0 15 -7 20 -25 20
-18 0 -25 -5 -25 -20 0 -11 -4 -20 -10 -20 -5 0 -10 23 -10 50 0 28 5 50 10
50 6 0 10 -9 10 -20z m282 0 c19 -17 19 -20 5 -20 -10 0 -17 -8 -17 -20 0 -11
7 -20 15 -20 8 0 15 -4 15 -10 0 -5 -9 -10 -20 -10 -13 0 -22 10 -29 36 -9 32
-6 64 5 64 3 0 14 -9 26 -20z m-464 -12 c20 -20 14 -38 -14 -38 -14 0 -23 -4
-20 -9 3 -5 16 -7 29 -4 17 4 19 3 11 -6 -7 -7 -22 -11 -35 -9 -31 4 -39 46
-13 65 22 16 27 16 42 1z m326 -1 c26 -19 18 -61 -12 -65 -45 -7 -72 46 -34
67 22 13 25 13 46 -2z m86 -9 c0 -5 -10 -7 -22 -3 -18 4 -17 2 5 -10 16 -9 26
-22 24 -28 -5 -17 -47 -21 -61 -6 -8 9 -6 10 12 6 12 -3 22 -1 22 4 0 5 -6 9
-14 9 -24 0 -31 22 -12 36 19 13 46 9 46 -8z m190 3 c13 -24 13 -61 1 -61 -5
0 -11 12 -13 27 -4 38 -27 41 -34 4 -9 -41 -24 -40 -24 2 0 40 2 42 34 45 16
1 29 -5 36 -17z m78 13 c18 -5 22 -13 22 -49 0 -25 -6 -48 -15 -55 -17 -14
-65 -6 -65 11 0 6 9 8 20 4 11 -3 25 -3 32 2 9 5 3 9 -17 13 -33 6 -46 40 -25
66 14 16 16 16 48 8z m-168 -39 c0 -19 -4 -35 -10 -35 -5 0 -10 16 -10 35 0
19 5 35 10 35 6 0 10 -16 10 -35z m-1869 -22 c13 -16 12 -17 -3 -4 -10 7 -18
15 -18 17 0 8 8 3 21 -13z"/>
<path d="M407 303 c-4 -3 -7 -12 -7 -20 0 -15 26 -18 34 -4 7 11 -18 33 -27
24z"/>
<path d="M800 270 c0 -5 5 -10 10 -10 6 0 10 5 10 10 0 6 -4 10 -10 10 -5 0
-10 -4 -10 -10z"/>
<path d="M971 296 c-12 -14 -5 -26 16 -26 15 0 18 26 4 34 -5 3 -14 0 -20 -8z"/>
<path d="M1537 304 c-14 -15 -6 -34 14 -34 14 0 19 5 17 17 -3 18 -20 27 -31
17z"/>
<path d="M1767 304 c-14 -15 -6 -34 14 -34 14 0 19 5 17 17 -3 18 -20 27 -31
17z"/>
<path d="M2123 294 c-8 -20 8 -36 26 -25 15 10 8 41 -9 41 -6 0 -13 -7 -17
-16z"/>
</g>
</svg>
