<?xml version="1.0" standalone="no"?>
<!DOCTYPE svg PUBLIC "-//W3C//DTD SVG 20010904//EN"
 "http://www.w3.org/TR/2001/REC-SVG-20010904/DTD/svg10.dtd">
<svg version="1.0" xmlns="http://www.w3.org/2000/svg"
 width="728.000000pt" height="90.000000pt" viewBox="0 0 728.000000 90.000000"
 preserveAspectRatio="xMidYMid meet">

<g transform="translate(0.000000,90.000000) scale(0.100000,-0.100000)"
fill="#000000" stroke="none">
<path d="M0 450 l0 -450 3640 0 3640 0 0 450 0 450 -3640 0 -3640 0 0 -450z
m5458 398 c-6 -18 -28 -21 -28 -4 0 9 7 16 16 16 9 0 14 -5 12 -12z m-2908
-33 c0 -8 -7 -15 -15 -15 -8 0 -15 7 -15 15 0 8 7 15 15 15 8 0 15 -7 15 -15z
m-1880 -49 c0 -11 -19 -15 -25 -6 -3 5 1 10 9 10 9 0 16 -2 16 -4z m3250 -66
c0 -5 -5 -10 -11 -10 -5 0 -7 5 -4 10 3 6 8 10 11 10 2 0 4 -4 4 -10z m-1820
-20 c0 -5 -5 -10 -11 -10 -5 0 -7 5 -4 10 3 6 8 10 11 10 2 0 4 -4 4 -10z
m2275 -24 c30 -28 26 -53 -6 -36 -11 6 -24 8 -29 5 -19 -12 -10 -33 20 -45 38
-16 54 -43 41 -67 -15 -28 -53 -56 -60 -46 -3 6 -16 15 -29 22 -32 17 -17 33
24 25 27 -5 34 -3 34 10 0 8 -13 22 -30 31 -34 17 -54 50 -44 68 6 10 45 53
51 56 1 1 14 -10 28 -23z m-3022 -5 c28 -11 41 -36 28 -58 -5 -9 -4 -27 2 -44
16 -41 -12 -69 -70 -69 l-43 0 0 90 0 90 29 0 c16 0 41 -4 54 -9z m245 -14 c2
-12 -3 -17 -17 -17 -12 0 -21 6 -21 13 0 31 32 34 38 4z m60 -55 c2 -40 7 -72
12 -72 6 0 10 -7 10 -15 0 -22 -37 -18 -50 4 -11 22 -14 144 -3 155 18 17 28
-7 31 -72z m152 -11 l0 -88 -45 -1 c-53 -1 -75 17 -75 62 0 41 30 70 65 64 22
-5 25 -2 25 23 0 19 5 29 15 29 12 0 15 -17 15 -89z m128 53 l19 -36 21 36
c12 20 28 36 37 36 20 0 19 -6 -7 -49 -13 -20 -25 -56 -28 -81 -4 -32 -10 -46
-22 -48 -15 -3 -18 4 -18 35 0 23 -10 54 -25 78 -28 46 -31 65 -10 65 8 0 23
-16 33 -36z m2778 26 c24 -9 26 -14 21 -49 -2 -21 0 -45 5 -55 7 -12 5 -24 -6
-42 -23 -34 -79 -34 -102 1 -15 23 -15 27 0 49 10 15 12 27 6 31 -17 11 -11
43 12 59 27 19 29 19 64 6z m151 -5 c17 -12 21 -25 21 -80 0 -53 -3 -67 -18
-75 -30 -16 -65 -12 -85 11 -16 16 -17 25 -8 49 6 15 8 39 6 53 -4 18 2 29 18
41 29 20 39 20 66 1z m133 8 c0 -16 -53 -168 -61 -177 -5 -5 -12 -7 -16 -3
-11 11 49 187 64 187 7 0 13 -3 13 -7z m-4350 -123 l60 -120 -44 0 c-24 0 -48
6 -54 13 -5 6 -35 60 -66 120 l-56 107 50 0 50 0 60 -120z m1865 78 c12 -70
21 -74 34 -14 17 78 41 77 62 -1 l16 -58 13 58 c10 45 17 57 32 57 14 0 18 -5
14 -17 -3 -10 -13 -49 -22 -86 -14 -59 -19 -68 -37 -65 -15 2 -24 14 -32 45
-10 43 -25 67 -25 42 0 -39 -22 -89 -39 -89 -14 0 -23 18 -39 79 -27 95 -26
91 -3 91 15 0 21 -10 26 -42z m355 17 c0 -22 3 -25 25 -19 35 9 65 -20 65 -62
0 -45 -22 -63 -75 -62 l-45 1 0 83 c0 68 3 84 15 84 9 0 15 -9 15 -25z m260
10 c0 -8 -7 -15 -15 -15 -8 0 -15 7 -15 15 0 8 7 15 15 15 8 0 15 -7 15 -15z
m380 0 c0 -8 -7 -15 -15 -15 -8 0 -15 -4 -15 -10 0 -5 7 -10 15 -10 8 0 15 -4
15 -10 0 -5 -7 -10 -15 -10 -11 0 -15 -12 -15 -50 0 -38 -4 -50 -15 -50 -11 0
-15 12 -15 49 0 30 -5 52 -12 55 -10 5 -10 7 0 12 6 3 12 11 12 18 0 18 21 36
42 36 10 0 18 -7 18 -15z m350 0 c0 -8 -7 -15 -15 -15 -8 0 -15 7 -15 15 0 8
7 15 15 15 8 0 15 -7 15 -15z m680 9 c0 -3 -9 -18 -19 -33 -19 -27 -19 -27 0
-39 23 -15 25 -55 3 -76 -29 -30 -103 -15 -91 18 5 13 10 14 25 5 11 -7 27 -9
36 -6 24 9 16 41 -12 45 -26 4 -29 24 -5 43 15 13 13 14 -12 19 -16 3 -30 11
-33 18 -3 9 12 12 52 12 31 0 56 -3 56 -6z m-1340 -24 c0 -11 7 -20 15 -20 8
0 15 -4 15 -10 0 -5 -7 -10 -15 -10 -10 0 -15 -10 -15 -30 0 -18 6 -33 15 -36
21 -8 19 -34 -3 -34 -27 0 -42 20 -42 55 0 17 -5 36 -10 41 -7 7 -6 19 2 37
15 31 38 36 38 7z m980 5 c0 -7 8 -19 18 -25 16 -10 16 -10 0 -20 -22 -13 -24
-58 -3 -66 18 -7 20 -34 3 -34 -27 0 -41 20 -48 65 -4 25 -5 57 -2 71 5 26 32
34 32 9z m-2730 -65 c0 -34 4 -50 13 -50 23 0 37 23 37 62 0 27 4 38 15 38 12
0 15 -14 15 -64 l0 -63 -50 -2 c-58 -1 -70 13 -70 83 0 39 3 46 20 46 17 0 20
-7 20 -50z m150 -15 c0 -58 -2 -65 -20 -65 -18 0 -20 7 -20 65 0 58 2 65 20
65 18 0 20 -7 20 -65z m537 43 c28 -26 30 -61 3 -88 -40 -40 -120 -12 -120 42
0 30 38 68 69 68 13 0 35 -10 48 -22z m75 -25 c3 -40 6 -48 23 -48 17 0 20 8
23 48 3 39 6 47 23 47 17 0 19 -7 19 -63 l0 -64 -52 -1 c-31 0 -56 4 -60 11
-4 7 -8 36 -8 65 0 39 4 52 14 52 11 0 16 -14 18 -47z m148 36 c0 -8 5 -7 15
1 11 9 19 10 27 2 12 -12 2 -32 -17 -32 -16 0 -25 -22 -25 -61 0 -19 -5 -29
-15 -29 -12 0 -15 14 -15 65 0 51 3 65 15 65 8 0 15 -5 15 -11z m444 -11 c26
-37 20 -48 -25 -48 -28 0 -39 -4 -36 -12 2 -7 18 -12 36 -11 45 2 39 -31 -6
-35 -62 -6 -96 65 -53 108 27 27 65 26 84 -2z m255 13 c19 -12 5 -30 -19 -24
-29 8 -25 -12 5 -25 17 -8 25 -20 25 -36 0 -28 -28 -41 -66 -32 -35 9 -24 32
12 28 28 -2 28 -2 10 13 -11 8 -23 15 -27 15 -4 0 -11 10 -15 22 -11 35 39 61
75 39z m71 -56 c0 -51 -3 -65 -15 -65 -12 0 -15 14 -15 65 0 51 3 65 15 65 12
0 15 -14 15 -65z m212 48 c10 -9 18 -24 18 -35 0 -14 -8 -18 -41 -18 -28 0
-39 -4 -36 -12 2 -7 19 -13 37 -14 41 0 51 -21 16 -30 -39 -9 -71 2 -84 31
-16 34 -15 38 9 69 23 30 54 33 81 9z m286 1 c27 -18 30 -69 5 -96 -20 -22
-70 -23 -95 -1 -26 23 -24 78 4 97 12 9 32 16 43 16 11 0 31 -7 43 -16z m122
-1 c0 -7 -9 -17 -20 -23 -15 -8 -20 -21 -20 -50 0 -29 -4 -40 -15 -40 -12 0
-15 14 -15 63 l0 63 35 0 c22 0 35 -5 35 -13z m110 -63 c0 -72 -2 -81 -22 -92
-13 -7 -23 -19 -23 -27 0 -8 -6 -16 -14 -19 -18 -6 -4 60 15 71 10 6 14 29 14
77 0 56 3 70 15 70 12 0 15 -16 15 -80z m60 35 c0 -33 5 -47 16 -52 23 -9 44
23 44 64 0 23 5 33 15 33 12 0 15 -14 15 -65 0 -51 -3 -65 -15 -65 -8 0 -15 5
-15 12 0 9 -3 9 -12 0 -15 -15 -51 -15 -66 0 -18 18 -16 118 3 118 11 0 15
-12 15 -45z m189 36 c19 -12 5 -30 -19 -24 -29 8 -25 -12 5 -25 17 -8 25 -20
25 -36 0 -28 -28 -41 -66 -32 -35 9 -24 32 12 28 l29 -3 -32 26 c-37 30 -41
49 -15 64 21 13 43 13 61 2z m941 -1 c0 -6 8 -5 20 2 15 9 25 10 37 2 12 -7
25 -8 44 0 42 15 59 -5 59 -70 0 -41 -4 -54 -15 -54 -11 0 -15 12 -15 44 0 25
-5 48 -10 51 -20 12 -40 -17 -40 -56 0 -28 -4 -39 -15 -39 -11 0 -15 12 -15
44 0 25 -5 48 -12 52 -16 10 -38 -25 -38 -63 0 -23 -5 -33 -15 -33 -12 0 -15
14 -15 65 0 51 3 65 15 65 8 0 15 -5 15 -10z m294 -11 c31 -25 34 -61 6 -89
-41 -41 -120 -12 -120 44 0 27 42 66 70 66 10 0 29 -9 44 -21z m-2914 -59 c0
-5 -5 -10 -11 -10 -5 0 -7 5 -4 10 3 6 8 10 11 10 2 0 4 -4 4 -10z m2170 -35
c0 -8 -7 -15 -15 -15 -8 0 -15 7 -15 15 0 8 7 15 15 15 8 0 15 -7 15 -15z
m1370 -40 c0 -41 2 -45 25 -45 16 0 25 -6 25 -15 0 -10 -11 -15 -35 -15 l-35
0 0 60 c0 33 4 60 10 60 6 0 10 -20 10 -45z m484 14 l13 -31 11 31 c17 49 38
39 45 -20 4 -29 4 -56 1 -61 -10 -16 -24 3 -25 35 0 28 -1 29 -9 11 -12 -30
-29 -39 -36 -20 -10 25 -24 19 -24 -10 0 -14 -5 -24 -11 -22 -6 2 -10 7 -10
11 1 4 1 30 1 57 0 59 23 69 44 19z m-360 -5 c26 -26 19 -44 -16 -45 -28 -2
-29 -2 -8 -6 39 -7 46 -21 15 -29 -23 -6 -32 -2 -47 16 -23 28 -23 35 2 60 24
24 34 25 54 4z m80 3 c12 -9 17 -23 14 -47 -2 -27 -8 -34 -29 -37 -28 -4 -55
19 -44 37 4 6 17 15 29 20 l21 9 -22 0 c-25 1 -31 16 -10 24 19 8 22 8 41 -6z
m72 -23 c-9 -8 -16 -26 -16 -40 0 -13 -4 -24 -10 -24 -5 0 -10 20 -10 44 0 39
3 45 23 48 28 4 33 -7 13 -28z m92 24 c16 -16 16 -91 0 -86 -7 3 -14 19 -16
36 -2 18 -7 32 -12 32 -5 0 -10 -14 -12 -32 -5 -52 -28 -47 -28 5 0 39 3 46
23 50 12 2 24 5 28 6 3 0 10 -4 17 -11z m282 -8 c11 -11 20 -24 20 -30 0 -15
-38 -50 -54 -50 -20 0 -46 28 -46 50 0 17 34 50 52 50 5 0 17 -9 28 -20z m66
-16 c-9 -8 -16 -26 -16 -40 0 -13 -4 -24 -10 -24 -5 0 -10 20 -10 44 0 39 3
45 23 48 28 4 33 -7 13 -28z m82 23 c21 -25 17 -41 -13 -48 l-30 -7 28 -1 c27
-1 36 -14 16 -26 -21 -14 -59 5 -65 32 -5 20 -2 31 16 45 26 21 34 22 48 5z
m-3128 -37 c0 -5 -4 -10 -10 -10 -5 0 -10 5 -10 10 0 6 5 10 10 10 6 0 10 -4
10 -10z m-1590 -20 c0 -5 -4 -10 -10 -10 -5 0 -10 5 -10 10 0 6 5 10 10 10 6
0 10 -4 10 -10z m-1370 -55 c0 -8 6 -12 14 -9 7 3 21 -2 30 -11 9 -9 16 -12
16 -6 0 16 40 24 55 11 25 -21 18 -40 -16 -40 -17 0 -28 -4 -24 -10 10 -15 52
-12 59 5 3 8 12 15 21 15 8 0 15 5 15 11 0 6 -7 9 -15 5 -8 -3 -15 -1 -15 5 0
15 29 22 44 10 7 -6 16 -8 20 -4 14 14 54 13 65 -1 7 -8 11 -27 9 -43 -2 -22
-9 -29 -30 -31 -18 -2 -28 -9 -28 -20 -1 -15 -2 -15 -14 1 -11 14 -28 18 -75
18 -46 1 -63 5 -71 17 -9 16 -9 16 -10 0 0 -10 -4 -18 -10 -18 -5 0 -10 16
-10 36 0 41 -23 43 -28 3 -8 -54 -22 -41 -22 20 0 39 4 60 10 56 6 -3 10 -13
10 -20z m-390 -25 c12 -22 35 -26 46 -8 5 8 2 9 -9 5 -9 -3 -19 -2 -22 3 -8
13 35 24 47 12 6 -6 19 -7 32 -3 25 10 86 8 103 -2 7 -4 21 -3 32 3 21 11 51
4 51 -11 0 -5 11 -2 25 7 25 16 55 13 55 -6 0 -5 -10 -9 -22 -7 -17 1 -24 -4
-26 -20 -3 -19 1 -23 22 -23 14 0 26 -4 26 -10 0 -18 -50 -10 -62 10 -13 21
-68 29 -68 10 0 -5 11 -10 25 -10 14 0 25 -4 25 -10 0 -14 -43 -13 -58 2 -9 9
-12 9 -12 0 0 -27 -19 -9 -22 21 -4 41 -20 41 -34 -1 -12 -37 -24 -32 -24 10
0 15 -4 28 -9 28 -11 0 -21 -25 -21 -50 0 -16 -8 -18 -52 -17 -51 0 -53 2 -58
31 -7 42 -34 41 -38 -1 -5 -46 -22 -41 -22 6 0 29 5 41 18 44 33 9 41 7 52
-13z m1012 -12 l15 -33 17 33 c9 17 20 32 25 32 9 0 25 -110 17 -117 -11 -12
-26 11 -27 40 l-1 32 -10 -27 c-5 -16 -14 -28 -19 -28 -4 0 -15 12 -23 28
l-15 27 -1 -37 c0 -21 -4 -38 -10 -38 -11 0 -14 103 -3 113 12 13 19 7 35 -25z
m398 20 c1 -7 7 -26 14 -43 l13 -30 13 43 c7 23 19 42 26 42 11 0 9 -13 -7
-52 -33 -85 -35 -85 -68 0 -17 43 -18 52 -6 52 8 0 15 -6 15 -12z m192 -45 c4
-65 4 -68 -11 -58 -13 8 -15 115 -2 115 5 0 11 -26 13 -57z m353 47 c12 -19
14 -85 3 -97 -6 -7 -23 -13 -39 -13 -29 0 -29 1 -29 60 0 60 0 60 29 60 17 0
33 -5 36 -10z m493 1 c8 -4 12 -19 10 -32 -2 -18 -10 -25 -30 -27 -22 -3 -28
-8 -28 -28 0 -14 -4 -22 -10 -19 -5 3 -10 31 -10 61 0 52 1 54 28 54 15 0 33
-4 40 -9z m222 -1 c0 -5 -6 -10 -12 -10 -9 0 -8 -4 2 -11 11 -8 12 -12 3 -16
-7 -2 -13 -20 -13 -39 0 -21 -4 -33 -10 -29 -5 3 -10 20 -10 36 0 24 -4 30
-17 27 -10 -2 -19 -14 -21 -28 -7 -47 -22 -46 -22 2 0 43 1 45 27 42 18 -2 32
4 41 17 14 20 32 25 32 9z m-562 -17 c12 -12 13 -18 4 -21 -16 -5 -16 -49 1
-55 6 -2 9 -7 6 -11 -3 -3 -13 -4 -22 -1 -21 9 -31 105 -10 105 2 0 12 -8 21
-17z m57 -48 c0 -25 0 -45 -2 -45 -13 0 -33 39 -33 64 0 69 33 51 35 -19z
m-987 33 c28 -28 7 -78 -33 -78 -27 0 -45 18 -45 45 0 27 18 45 45 45 12 0 26
-5 33 -12z m78 -1 c3 -3 15 0 25 6 22 14 52 0 57 -27 3 -12 -4 -16 -28 -16
-18 0 -29 -4 -25 -10 3 -5 17 -10 31 -10 14 0 22 -4 19 -10 -9 -14 -48 -13
-63 2 -7 7 -12 23 -12 36 0 33 -24 22 -30 -14 -3 -16 -10 -28 -15 -27 -11 3
-19 48 -12 67 5 13 41 15 53 3z m292 1 c7 -7 12 -26 12 -43 0 -28 -3 -32 -29
-33 -52 -1 -61 31 -16 56 19 11 19 11 -3 12 -13 0 -20 4 -17 10 8 14 38 13 53
-2z m92 -23 c0 -46 27 -49 32 -2 4 44 23 36 23 -10 0 -37 -1 -38 -35 -38 -34
0 -35 1 -38 43 -2 25 1 42 7 42 6 0 11 -16 11 -35z m138 23 c22 -22 13 -38
-19 -38 -17 0 -28 -4 -24 -10 3 -5 17 -10 31 -10 14 0 22 -4 19 -10 -9 -14
-48 -13 -63 2 -26 26 -7 78 28 78 9 0 21 -5 28 -12z m266 6 c9 -3 16 -15 16
-25 0 -15 -7 -19 -31 -19 -17 0 -28 -4 -24 -10 3 -5 18 -10 33 -10 19 0 23 -3
15 -11 -16 -16 -60 -3 -68 21 -13 40 19 69 59 54z m214 -21 c3 -19 -1 -23 -22
-23 -35 0 -33 -18 2 -22 24 -4 25 -5 8 -13 -38 -17 -73 37 -45 71 18 22 53 13
57 -13z m72 17 c0 -4 -7 -10 -15 -14 -9 -3 -15 -18 -15 -36 0 -16 -4 -30 -10
-30 -5 0 -10 20 -10 44 0 40 2 44 25 44 14 0 25 -4 25 -8z m208 -2 c22 -22 13
-38 -19 -38 -17 0 -28 -4 -24 -10 3 -5 17 -10 31 -10 14 0 22 -4 19 -10 -16
-25 -75 2 -75 35 0 17 27 45 44 45 6 0 17 -5 24 -12z m212 -2 c28 -35 -11 -93
-47 -70 -36 22 -23 84 17 84 10 0 23 -7 30 -14z m80 4 c0 -4 -7 -10 -15 -14
-9 -3 -15 -18 -15 -36 0 -16 -4 -30 -10 -30 -5 0 -10 20 -10 44 0 40 2 44 25
44 14 0 25 -4 25 -8z m128 -3 c14 -10 16 -63 2 -72 -6 -4 -10 8 -10 30 0 29
-3 36 -17 33 -12 -2 -19 -14 -21 -36 -4 -40 -22 -32 -22 9 0 41 -24 33 -28 -9
-5 -48 -22 -38 -22 12 l0 43 53 -1 c28 0 58 -5 65 -9z m80 1 c7 -7 12 -26 12
-44 0 -30 -2 -32 -32 -31 -43 3 -49 30 -11 51 26 14 26 15 6 16 -13 0 -23 5
-23 10 0 14 33 13 48 -2z m100 0 c14 -12 16 -64 2 -73 -6 -4 -10 8 -10 30 0
29 -3 36 -17 33 -12 -2 -19 -14 -21 -36 -5 -48 -22 -39 -22 12 0 41 2 44 28
44 15 0 33 -5 40 -10z m97 3 c3 -5 -7 -11 -22 -13 -20 -2 -28 -9 -28 -23 0
-15 7 -20 28 -20 31 1 31 -18 0 -23 -22 -3 -53 21 -53 43 0 32 59 60 75 36z
m83 -3 c22 -22 13 -38 -19 -38 -17 0 -28 -4 -24 -10 3 -5 18 -10 33 -10 19 0
23 -3 15 -11 -19 -19 -62 -2 -69 26 -11 43 34 73 64 43z m-1494 -69 c-3 -5
-10 -7 -15 -3 -5 3 -7 10 -3 15 3 5 10 7 15 3 5 -3 7 -10 3 -15z m1536 1 c0
-5 -2 -10 -4 -10 -3 0 -8 5 -11 10 -3 6 -1 10 4 10 6 0 11 -4 11 -10z m-3406
-171 c-8 -14 -34 -11 -34 4 0 8 3 17 7 20 9 9 34 -13 27 -24z m2406 6 c0 -8
-7 -15 -15 -15 -8 0 -15 7 -15 15 0 8 7 15 15 15 8 0 15 -7 15 -15z"/>
<path d="M1300 605 c0 -9 9 -15 25 -15 16 0 25 6 25 15 0 9 -9 15 -25 15 -16
0 -25 -6 -25 -15z"/>
<path d="M1300 530 c0 -15 7 -20 25 -20 18 0 25 5 25 20 0 15 -7 20 -25 20
-18 0 -25 -5 -25 -20z"/>
<path d="M1731 566 c-17 -20 -4 -56 20 -56 24 0 36 27 22 48 -14 22 -28 25
-42 8z"/>
<path d="M4671 616 c-10 -12 -8 -17 8 -25 22 -12 37 0 27 24 -7 19 -20 19 -35
1z"/>
<path d="M4664 545 c-8 -20 4 -35 27 -35 21 0 25 20 7 38 -16 16 -27 15 -34
-3z"/>
<path d="M4817 623 c-12 -11 -8 -22 13 -33 16 -9 22 -8 27 6 8 21 -24 44 -40
27z"/>
<path d="M4808 548 c-8 -21 2 -38 22 -38 28 0 36 21 15 37 -23 16 -32 16 -37
1z"/>
<path d="M2881 566 c-19 -23 -4 -58 22 -54 17 2 22 10 22 33 0 34 -24 45 -44
21z"/>
<path d="M2072 571 c-8 -4 -12 -19 -10 -32 2 -18 9 -24 28 -24 19 0 26 6 28
24 3 20 -11 41 -28 41 -3 0 -11 -4 -18 -9z"/>
<path d="M2740 570 c0 -5 9 -10 20 -10 11 0 20 5 20 10 0 6 -9 10 -20 10 -11
0 -20 -4 -20 -10z"/>
<path d="M3285 570 c-4 -6 5 -10 20 -10 15 0 24 4 20 10 -3 6 -12 10 -20 10
-8 0 -17 -4 -20 -10z"/>
<path d="M3560 565 c-20 -25 -8 -50 25 -50 21 0 31 5 33 18 4 21 -14 47 -33
47 -7 0 -18 -7 -25 -15z"/>
<path d="M5270 559 c-9 -15 -8 -24 1 -35 27 -33 79 1 58 39 -14 23 -46 21 -59
-4z"/>
<path d="M6058 443 c7 -3 16 -2 19 1 4 3 -2 6 -13 5 -11 0 -14 -3 -6 -6z"/>
<path d="M6140 409 c0 -5 5 -7 10 -4 6 3 10 8 10 11 0 2 -4 4 -10 4 -5 0 -10
-5 -10 -11z"/>
<path d="M6570 431 c0 -15 6 -21 21 -21 25 0 22 33 -4 38 -12 2 -17 -3 -17
-17z"/>
<path d="M6738 443 c7 -3 16 -2 19 1 4 3 -2 6 -13 5 -11 0 -14 -3 -6 -6z"/>
<path d="M755 320 c-3 -5 3 -10 15 -10 12 0 18 5 15 10 -3 6 -10 10 -15 10 -5
0 -12 -4 -15 -10z"/>
<path d="M906 315 c-8 -21 1 -35 20 -35 10 0 14 8 12 22 -4 27 -23 34 -32 13z"/>
<path d="M835 290 c-3 -5 -2 -10 4 -10 5 0 13 5 16 10 3 6 2 10 -4 10 -5 0
-13 -4 -16 -10z"/>
<path d="M525 320 c-3 -5 3 -10 15 -10 12 0 18 5 15 10 -3 6 -10 10 -15 10 -5
0 -12 -4 -15 -10z"/>
<path d="M320 290 c0 -5 4 -10 9 -10 6 0 13 5 16 10 3 6 -1 10 -9 10 -9 0 -16
-4 -16 -10z"/>
<path d="M2200 315 c0 -8 7 -15 15 -15 8 0 15 7 15 15 0 8 -7 15 -15 15 -8 0
-15 -7 -15 -15z"/>
<path d="M2200 265 c0 -8 9 -15 20 -15 11 0 20 7 20 15 0 8 -9 15 -20 15 -11
0 -20 -7 -20 -15z"/>
<path d="M2690 310 c0 -23 35 -28 43 -6 7 18 -1 26 -25 26 -11 0 -18 -7 -18
-20z"/>
<path d="M1414 285 c-4 -9 -2 -21 4 -27 15 -15 44 -1 40 19 -4 23 -36 29 -44
8z"/>
<path d="M1578 293 c6 -2 18 -2 25 0 6 3 1 5 -13 5 -14 0 -19 -2 -12 -5z"/>
<path d="M1800 260 c0 -5 4 -10 9 -10 6 0 13 5 16 10 3 6 -1 10 -9 10 -9 0
-16 -4 -16 -10z"/>
<path d="M2028 293 c6 -2 18 -2 25 0 6 3 1 5 -13 5 -14 0 -19 -2 -12 -5z"/>
<path d="M2308 293 c7 -3 16 -2 19 1 4 3 -2 6 -13 5 -11 0 -14 -3 -6 -6z"/>
<path d="M2508 293 c7 -3 16 -2 19 1 4 3 -2 6 -13 5 -11 0 -14 -3 -6 -6z"/>
<path d="M2798 293 c7 -3 16 -2 19 1 4 3 -2 6 -13 5 -11 0 -14 -3 -6 -6z"/>
<path d="M2988 288 c-8 -21 2 -38 22 -38 19 0 30 17 23 38 -3 6 -13 12 -23 12
-10 0 -20 -6 -22 -12z"/>
<path d="M3290 260 c0 -5 7 -10 15 -10 8 0 15 5 15 10 0 6 -7 10 -15 10 -8 0
-15 -4 -15 -10z"/>
<path d="M3568 293 c6 -2 18 -2 25 0 6 3 1 5 -13 5 -14 0 -19 -2 -12 -5z"/>
</g>
</svg>
